<svg width="114" height="82" viewBox="0 0 114 82" fill="none" xmlns="http://www.w3.org/2000/svg">
<path d="M22.0219 0.964355C9.88912 0.964355 0 10.5352 0 22.2774V59.8888C0 71.631 9.88912 81.2018 22.0219 81.2018H91.974C104.107 81.2018 113.996 71.631 113.996 59.8888V22.2774C113.996 10.5352 104.107 0.964355 91.974 0.964355H22.0219V0.964355ZM22.0219 8.48662H91.974C99.9353 8.48662 106.223 14.5724 106.223 22.2774V59.8888C106.223 67.5938 99.9353 73.6796 91.974 73.6796H22.0219C14.0606 73.6796 7.77245 67.5938 7.77245 59.8888V22.2774C7.77245 14.5724 14.0606 8.48662 22.0219 8.48662V8.48662ZM47.9301 24.7849V57.3813L76.4291 41.0831L47.9301 24.7849Z" fill="white"/>
</svg>
