<svg width="95" height="68" viewBox="0 0 95 68" fill="none" xmlns="http://www.w3.org/2000/svg">
<path d="M18.9963 0.996582C8.99126 0.996582 0.836426 8.88894 0.836426 18.5719V49.5872C0.836426 59.2702 8.99126 67.1626 18.9963 67.1626H76.6806C86.6857 67.1626 94.8405 59.2702 94.8405 49.5872V18.5719C94.8405 8.88894 86.6857 0.996582 76.6806 0.996582H18.9963V0.996582ZM18.9963 7.19964H76.6806C83.2457 7.19964 88.4311 12.2181 88.4311 18.5719V49.5872C88.4311 55.941 83.2457 60.9595 76.6806 60.9595H18.9963C12.4312 60.9595 7.2458 55.941 7.2458 49.5872V18.5719C7.2458 12.2181 12.4312 7.19964 18.9963 7.19964V7.19964ZM40.3609 20.6396V47.5195L63.8619 34.0796L40.3609 20.6396Z" fill="white"/>
</svg>
