<svg width="95" height="90" viewBox="0 0 95 90" fill="none" xmlns="http://www.w3.org/2000/svg">
<path d="M47.8751 0.468994C40.5612 0.468994 33.2075 3.16864 27.631 8.56556C23.4839 12.5791 20.9698 17.5581 19.9038 22.75C9.08216 24.7817 0.873047 33.9284 0.873047 44.9692C0.873047 57.4955 11.4311 67.7138 24.3741 67.7138H35.6137C36.0199 67.7193 36.4232 67.6467 36.8001 67.5001C37.1771 67.3535 37.5201 67.1359 37.8094 66.8599C38.0987 66.5838 38.3284 66.2549 38.4852 65.8922C38.642 65.5295 38.7227 65.1403 38.7227 64.7471C38.7227 64.3539 38.642 63.9647 38.4852 63.602C38.3284 63.2393 38.0987 62.9104 37.8094 62.6344C37.5201 62.3583 37.1771 62.1407 36.8001 61.9941C36.4232 61.8475 36.0199 61.7749 35.6137 61.7804H24.3741C14.7446 61.7804 7.00375 54.2888 7.00375 44.9692C7.00375 36.1682 13.9197 28.9981 22.7775 28.2198C23.4722 28.1543 24.123 27.8614 24.6223 27.3894C25.1216 26.9174 25.4396 26.2946 25.5236 25.624C26.0876 20.9217 28.2375 16.3532 31.9736 12.7374C36.373 8.4798 42.1141 6.40235 47.8751 6.40235C53.6361 6.40235 59.341 8.4754 63.7446 12.7374C68.8335 17.6625 70.9869 24.3538 70.1947 30.7538C70.1405 31.1708 70.1784 31.5942 70.3059 31.9959C70.4335 32.3976 70.6477 32.7685 70.9345 33.084C71.2213 33.3995 71.5741 33.6525 71.9695 33.8262C72.3649 33.9999 72.7939 34.0902 73.2281 34.0914H74.4415C82.4194 34.0914 88.7464 40.2147 88.7464 47.9359C88.7464 55.6571 82.4194 61.7804 74.4415 61.7804H60.1365C59.7303 61.7749 59.327 61.8475 58.9501 61.9941C58.5731 62.1407 58.2301 62.3583 57.9408 62.6344C57.6515 62.9104 57.4218 63.2393 57.265 63.602C57.1082 63.9647 57.0275 64.3539 57.0275 64.7471C57.0275 65.1403 57.1082 65.5295 57.265 65.8922C57.4218 66.2549 57.6515 66.5838 57.9408 66.8599C58.2301 67.1359 58.5731 67.3535 58.9501 67.5001C59.327 67.6467 59.7303 67.7193 60.1365 67.7138H74.4415C85.7098 67.7138 94.8771 58.8415 94.8771 47.9359C94.8771 37.6433 86.6843 29.2645 76.2934 28.3434C76.3415 21.1848 73.7143 14.0114 68.0872 8.56556C62.5156 3.17304 55.189 0.468994 47.8751 0.468994H47.8751ZM47.8751 49.9137C46.1819 49.9137 44.8097 51.242 44.8097 52.8804V79.7968L38.7109 74.4197C37.5222 73.377 35.4518 73.4599 34.3683 74.6051C33.2849 75.7504 33.2622 77.6422 34.56 78.8079L45.7996 88.6969C46.3127 89.1512 46.8531 89.4694 47.8751 89.4694C48.8971 89.4694 49.3433 89.2349 49.9505 88.6969L61.1902 78.8079C62.3683 77.7539 62.5895 75.7504 61.3818 74.6051C60.2358 73.5183 58.2281 73.377 57.0393 74.4197L50.9404 79.7968V52.8804C50.9404 51.242 49.5684 49.9137 47.8751 49.9137V49.9137Z" fill="white"/>
</svg>
