<?xml version="1.0" encoding="UTF-8"?>
<svg width="548px" height="73px" viewBox="0 0 548 73" version="1.1" xmlns="http://www.w3.org/2000/svg" xmlns:xlink="http://www.w3.org/1999/xlink">
    <!-- Generator: Sketch 55.2 (78181) - https://sketchapp.com -->
    <title>Group</title>
    <desc>Created with Sketch.</desc>
    <g id="Page-1" stroke="none" stroke-width="1" fill="none" fill-rule="evenodd">
        <g id="Artboard-Copy-19" transform="translate(-108.000000, -160.000000)" fill-rule="nonzero">
            <g id="Group" transform="translate(108.000000, 160.000000)">
                <path d="M27,0.955303811 L27,16.6096565 C20.9101057,19.9171172 16.4,26.6726407 16.4,36.2 C16.4,50.1 25.9,58.1 36.1,58.1 C46.2,58.1 55.6,50.1 55.6,36.2 C55.6,27.148543 51.5716148,20.5989252 46,17.1310163 L46,1.1892841 C62.0681506,5.19964688 72.1,18.9460036 72.1,36.2 C72.1,56.6 57.3,72.4 36,72.4 C14.7,72.4 3.41060513e-13,56.6 3.41060513e-13,36.2 C3.41060513e-13,18.5928205 10.3736952,4.63835068 27,0.955303811 Z" id="Combined-Shape" fill="#FDFFFC"></path>
                <polygon id="Path" fill="#FDFFFC" points="80.6 71.2 80.6 1.2 127 1.2 127 15.5 97 15.5 97 28.3 125 28.3 125 42.6 97 42.6 97 71.2"></polygon>
                <polygon id="Path" fill="#FDFFFC" points="135.4 71.2 135.4 1.2 181.8 1.2 181.8 15.5 151.8 15.5 151.8 28.3 179.8 28.3 179.8 42.6 151.8 42.6 151.8 71.2"></polygon>
                <path d="M210.1,72.4 C195.8,72.4 188,65.4 184,54 L197.6,48.4 C199.5,54.6 204.4,58.3 210.1,58.3 C215.1,58.3 218.6,55.6 218.6,51.4 C218.6,48 216.6,45.3 210.7,42.3 C209.3,41.6 202.1,38 200.9,37.3 C194.5,34 188.8,28.3 188.8,18.2 C188.8,7.5 197.3,5.68434189e-14 210.2,5.68434189e-14 C220.9,5.68434189e-14 226.8,4.6 230,12.4 L216.9,19.1 C215.6,15.9 213.4,13.8 210.2,13.8 C207.3,13.8 205.1,15.4 205.1,18 C205.1,20.5 206.4,22.3 210.3,24.4 C211.1,24.8 219.5,29.2 220.3,29.7 C230.1,34.9 234.7,41.3 234.7,51.3 C234.7,62.5 225.2,72.4 210.1,72.4 Z" id="Path" fill="#34BCC1"></path>
                <polygon id="Path" fill="#34BCC1" points="252.9 71.2 252.9 15.5 235.2 15.5 235.2 1.2 287.5 1.2 287.5 15.5 269.2 15.5 269.2 71.2"></polygon>
                <path d="M292.6,71.2 L292.6,1.2 L317.5,1.2 C333,1.2 341.4,8.9 341.4,20.9 C341.4,30.2 336.2,36 327.5,39.1 L346.4,71.2 L328,71.2 L311.2,41.6 L309,41.6 L309,71.2 L292.6,71.2 Z M309,27.7 L317.4,27.7 C322.2,27.7 325,25.3 325,21.5 C325,17.6 322.1,15.3 317.4,15.3 L309,15.3 L309,27.7 Z" id="Combined-Shape" fill="#34BCC1"></path>
                <polygon id="Path" fill="#34BCC1" points="352.6 71.2 352.6 1.2 399.6 1.2 399.6 15.5 369 15.5 369 27.7 397.6 27.7 397.6 42.1 369 42.1 369 56.9 399.6 56.9 399.6 71.2"></polygon>
                <path d="M402,71.2 L428.1,1.2 L443.7,1.2 L469.5,71.2 L453.1,71.2 L448.2,57.4 L423.2,57.4 L418.2,71.2 L402,71.2 Z M428,43.1 L443.4,43.1 L435.7,20.5 L428,43.1 Z" id="Combined-Shape" fill="#34BCC1"></path>
                <polygon id="Path" fill="#34BCC1" points="473.7 71.2 473.7 1.2 495.1 1.2 510.5 49.6 527.1 1.2 547.3 1.2 547.3 71.2 531.8 71.2 531.8 30 517.6 71.2 503.4 71.2 489.2 30 489.2 71.2"></polygon>
            </g>
        </g>
    </g>
</svg>