<svg width="95" height="87" viewBox="0 0 95 87" fill="none" xmlns="http://www.w3.org/2000/svg">
<path fill-rule="evenodd" clip-rule="evenodd" d="M49.4862 1.48531L60.9548 32.422L91.9444 34.7836C94.1405 34.7836 94.8725 37.3814 93.4085 38.7983L69.7393 58.1633L76.0836 83.9045C76.5716 85.7938 74.6195 87.2107 72.9114 86.2661L47.2901 73.9859L19.7167 86.5023C17.7646 87.2107 15.8125 85.5576 16.5445 83.6684L24.5969 58.1633L0.927714 38.7983C-0.536361 37.3814 0.195677 34.7836 2.39179 34.7836L33.3814 32.422L45.094 1.48531C45.826 -0.403957 48.5102 -0.403957 49.4862 1.48531ZM47.2901 13.2932L37.7736 38.326L12.1523 39.9791L31.9173 56.0379L25.085 77.2921L47.2901 67.1373L68.0312 77.2921L62.6629 55.8017L82.1839 39.9791L56.5626 38.326L47.2901 13.2932Z" fill="white"/>
</svg>
