<svg width="93" height="89" viewBox="0 0 93 89" fill="none" xmlns="http://www.w3.org/2000/svg">
<path d="M46.3598 0.335205C21.1894 0.335205 0.700684 20.1644 0.700684 44.5246C0.700684 68.8846 21.1894 88.7139 46.3598 88.7139C71.5303 88.7139 92.019 68.8846 92.019 44.5246C92.019 20.1644 71.5303 0.335205 46.3598 0.335205V0.335205ZM46.3598 7.91052C67.3 7.91052 84.1917 24.2584 84.1917 44.5246C84.1917 64.7907 67.3 81.1386 46.3598 81.1386C25.4196 81.1386 8.52797 64.7907 8.52797 44.5246C8.52797 24.2584 25.4196 7.91052 46.3598 7.91052V7.91052ZM46.3598 14.2233C44.1985 14.2233 42.4462 15.9192 42.4462 18.0109V44.5246C42.4462 45.9254 43.2349 47.144 44.403 47.7994L65.8873 59.7936C67.759 60.8394 70.1469 60.2243 71.2278 58.4126C72.3084 56.6011 71.6725 54.29 69.801 53.2441L50.2735 42.3546V18.0109C50.2735 15.9192 48.5213 14.2233 46.3598 14.2233Z" fill="white"/>
</svg>
